<svg width="22" height="22" xmlns="http://www.w3.org/2000/svg" xmlns:xlink="http://www.w3.org/1999/xlink" xml:space="preserve" overflow="hidden"><defs><clipPath id="clip0"><rect x="2473" y="1227" width="22" height="22"/></clipPath></defs><g clip-path="url(#clip0)" transform="translate(-2473 -1227)"><path d="M2483.77 1230C2483.49 1230 2483.21 1230.11 2482.99 1230.32 2482.57 1230.75 2482.57 1231.44 2482.99 1231.87L2488.03 1236.91 2477.47 1236.91C2476.87 1236.91 2476.38 1237.4 2476.38 1238 2476.38 1238.6 2476.87 1239.09 2477.47 1239.09L2487.97 1239.09 2482.99 1244.07C2482.57 1244.49 2482.57 1245.19 2482.99 1245.61 2483.42 1246.04 2484.11 1246.04 2484.54 1245.61L2491.23 1238.92 2491.29 1238.78 2491.3 1238.77C2491.5 1238.58 2491.62 1238.3 2491.62 1238L2491.54 1237.81 2491.55 1237.79C2491.55 1237.51 2491.44 1237.23 2491.23 1237.01L2484.54 1230.32C2484.33 1230.11 2484.05 1230 2483.77 1230ZM2484 1227C2490.08 1227 2495 1231.92 2495 1238 2495 1244.07 2490.08 1249 2484 1249 2477.92 1249 2473 1244.07 2473 1238 2473 1231.92 2477.92 1227 2484 1227Z" fill="#0CA1A6" fill-rule="evenodd"/></g></svg>