<svg width="65" height="19" xmlns="http://www.w3.org/2000/svg" xmlns:xlink="http://www.w3.org/1999/xlink" xml:space="preserve" overflow="hidden"><defs><clipPath id="clip0"><rect x="2335" y="1293" width="65" height="19"/></clipPath></defs><g clip-path="url(#clip0)" transform="translate(-2335 -1293)"><path d="M2373.72 1300.01 2374.88 1303.3 2372.58 1303.3ZM2385.47 1298.02 2385.47 1306.8 2391.41 1306.8 2391.41 1305.31 2387.18 1305.31 2387.18 1298.02ZM2378.41 1298.02 2378.41 1306.8 2384.34 1306.8 2384.34 1305.31 2380.11 1305.31 2380.11 1298.02ZM2372.84 1297.95 2369.56 1306.8 2371.36 1306.8 2372.06 1304.79 2375.43 1304.79 2376.16 1306.8 2378.01 1306.8 2374.64 1297.95ZM2363.63 1297.95 2363.63 1299.45 2366.13 1299.45 2366.13 1306.8 2367.83 1306.8 2367.83 1299.45 2370.33 1299.45 2370.33 1297.95ZM2347.76 1297.95 2347.76 1306.8 2349.34 1306.8 2349.34 1301.03 2352.74 1306.8 2354.45 1306.8 2354.45 1297.95 2352.87 1297.95 2352.87 1303.86 2349.42 1297.95ZM2344.75 1297.95 2344.75 1306.8 2346.45 1306.8 2346.45 1297.95ZM2359.23 1297.8C2358.58 1297.8 2358.03 1297.9 2357.57 1298.1 2357.11 1298.31 2356.76 1298.61 2356.52 1299 2356.28 1299.39 2356.15 1299.82 2356.15 1300.27 2356.15 1300.97 2356.41 1301.56 2356.93 1302.05 2357.3 1302.4 2357.94 1302.69 2358.85 1302.93 2359.56 1303.11 2360.01 1303.24 2360.21 1303.31 2360.51 1303.42 2360.71 1303.55 2360.83 1303.7 2360.94 1303.84 2361 1304.02 2361 1304.23 2361 1304.56 2360.86 1304.84 2360.58 1305.08 2360.31 1305.33 2359.89 1305.45 2359.35 1305.45 2358.83 1305.45 2358.42 1305.31 2358.11 1305.04 2357.81 1304.77 2357.61 1304.34 2357.51 1303.75L2355.85 1303.92C2355.96 1304.91 2356.3 1305.67 2356.87 1306.18 2357.44 1306.7 2358.26 1306.96 2359.33 1306.96 2360.06 1306.96 2360.67 1306.85 2361.16 1306.64 2361.65 1306.42 2362.03 1306.09 2362.3 1305.65 2362.57 1305.21 2362.7 1304.73 2362.7 1304.22 2362.7 1303.66 2362.59 1303.19 2362.37 1302.81 2362.14 1302.43 2361.83 1302.13 2361.44 1301.91 2361.04 1301.69 2360.43 1301.48 2359.6 1301.28 2358.77 1301.07 2358.25 1300.87 2358.03 1300.68 2357.87 1300.54 2357.78 1300.36 2357.78 1300.15 2357.78 1299.92 2357.87 1299.73 2358.05 1299.6 2358.33 1299.38 2358.72 1299.28 2359.21 1299.28 2359.69 1299.28 2360.05 1299.38 2360.29 1299.58 2360.53 1299.78 2360.69 1300.1 2360.76 1300.56L2362.46 1300.48C2362.44 1299.67 2362.15 1299.01 2361.62 1298.53 2361.08 1298.04 2360.29 1297.8 2359.23 1297.8ZM2344.04 1293 2390.96 1293C2395.95 1293 2400 1297.25 2400 1302.5 2400 1307.75 2395.95 1312 2390.96 1312L2344.04 1312C2339.05 1312 2335 1307.75 2335 1302.5 2335 1297.25 2339.05 1293 2344.04 1293Z" fill="#0CA1A6" fill-rule="evenodd"/></g></svg>