<svg width="34" height="18" xmlns="http://www.w3.org/2000/svg" xmlns:xlink="http://www.w3.org/1999/xlink" xml:space="preserve" overflow="hidden"><defs><clipPath id="clip0"><rect x="2293" y="1293" width="34" height="18"/></clipPath></defs><g clip-path="url(#clip0)" transform="translate(-2293 -1293)"><path d="M2304.24 1302.34 2312.2 1302.34 2312.2 1307.6 2304.24 1307.6ZM2308.87 1296.4 2315.67 1296.4 2315.67 1303.09 2313.4 1303.09 2313.4 1299.75 2308.87 1299.75ZM2307.73 1295.25 2307.73 1299.75 2303.2 1299.75 2303.2 1308.75 2313.4 1308.75 2313.4 1304.25 2316.8 1304.25 2316.8 1295.25ZM2302.07 1293 2317.93 1293C2322.94 1293 2327 1297.03 2327 1302 2327 1306.97 2322.94 1311 2317.93 1311L2302.07 1311C2297.06 1311 2293 1306.97 2293 1302 2293 1297.03 2297.06 1293 2302.07 1293Z" fill="#0CA1A6" fill-rule="evenodd"/></g></svg>